<svg xmlns="http://www.w3.org/2000/svg" xmlns:xlink="http://www.w3.org/1999/xlink" version="1.1" x="0px" y="0px" viewBox="0 0 100 125" enable-background="new 0 0 100 100" xml:space="preserve"><g><g><path d="M50,94.375C25.531,94.375,5.625,74.468,5.625,50C5.625,25.531,25.531,5.625,50,5.625    c24.468,0,44.375,19.906,44.375,44.375C94.375,74.468,74.468,94.375,50,94.375z M50,14.918c-19.344,0-35.082,15.738-35.082,35.082    S30.656,85.082,50,85.082c19.344,0,35.082-15.738,35.082-35.082S69.344,14.918,50,14.918z"/></g></g><path d="M46.333,46.5H33.521c-1.934,0-3.501,1.567-3.5,3.5c-0.001,1.934,1.566,3.5,3.5,3.5h12.812h7h12.812  c1.934,0,3.5-1.566,3.5-3.5c0-1.934-1.566-3.5-3.5-3.5H53.333H46.333z"/><path d="M46.666,33.5H33.854c-1.935,0-3.501,1.567-3.5,3.5c-0.001,1.934,1.565,3.5,3.5,3.5h12.812h7.001h12.812  c1.934,0,3.5-1.566,3.5-3.5c0-1.934-1.566-3.5-3.5-3.5H53.667H46.666z"/><path d="M46.666,59.5H33.854c-1.935,0-3.501,1.567-3.5,3.5c-0.001,1.934,1.565,3.5,3.5,3.5h12.812h7.001h12.812  c1.934,0,3.5-1.566,3.5-3.5c0-1.935-1.566-3.5-3.5-3.5H53.667H46.666z"/><text x="0" y="115" fill="#000000" font-size="5px" font-weight="bold" font-family="'Helvetica Neue', Helvetica, Arial-Unicode, Arial, Sans-serif">Created by Percy Batalier</text><text x="0" y="120" fill="#000000" font-size="5px" font-weight="bold" font-family="'Helvetica Neue', Helvetica, Arial-Unicode, Arial, Sans-serif">from the Noun Project</text></svg>